<?xml version="1.0" standalone="no"?>
<!DOCTYPE svg PUBLIC "-//W3C//DTD SVG 20010904//EN"
 "http://www.w3.org/TR/2001/REC-SVG-20010904/DTD/svg10.dtd">
<svg version="1.0" xmlns="http://www.w3.org/2000/svg"
 width="1024.000000pt" height="262.000000pt" viewBox="0 0 1024.000000 262.000000"
 preserveAspectRatio="xMidYMid meet">

<g transform="translate(0.000000,262.000000) scale(0.100000,-0.100000)"
fill="#000000" stroke="none">
<path d="M4382 2604 c-51 -7 -128 -23 -170 -34 -111 -31 -285 -119 -365 -185
-165 -137 -288 -356 -333 -592 -23 -124 -21 -386 5 -508 62 -296 236 -521 495
-640 217 -101 528 -132 741 -75 96 26 225 85 306 140 l59 40 0 -79 c0 -44 4
-83 10 -86 5 -3 103 -6 216 -6 159 0 209 3 215 13 11 17 11 1019 0 1036 -6 11
-91 13 -431 13 -233 0 -427 -4 -432 -9 -5 -5 -7 -85 -6 -178 l3 -169 150 -5
150 -5 3 -27 c5 -40 -23 -90 -81 -149 -95 -97 -249 -147 -397 -128 -291 35
-444 262 -427 633 6 137 22 209 72 313 96 204 320 287 576 212 90 -25 156 -84
193 -171 15 -35 31 -70 35 -78 7 -13 49 -15 282 -15 l274 0 3 30 c6 46 -26
163 -68 250 -165 343 -601 529 -1078 459z"/>
<path d="M9752 2568 c-9 -9 -12 -104 -12 -366 l0 -354 -56 50 c-107 96 -225
137 -394 136 -322 -2 -535 -171 -622 -494 -19 -73 -22 -108 -22 -255 1 -198
16 -274 86 -415 48 -99 148 -206 238 -257 228 -129 513 -102 715 66 l60 50 5
-69 c3 -38 8 -71 12 -75 3 -4 109 -7 234 -7 178 0 229 3 235 14 13 20 11 1945
-1 1969 -10 18 -24 19 -238 19 -164 0 -231 -3 -240 -12z m-166 -943 c49 -20
99 -68 127 -120 19 -35 22 -60 25 -192 5 -183 -7 -237 -67 -305 -60 -68 -124
-92 -226 -86 -133 9 -212 61 -251 169 -21 57 -30 246 -15 324 22 121 82 192
188 221 59 17 166 12 219 -11z"/>
<path d="M2556 2029 c-121 -20 -209 -63 -293 -142 l-53 -50 0 64 c0 35 -4 70
-9 78 -14 21 -458 21 -472 0 -14 -23 -12 -1952 3 -1967 9 -9 75 -12 234 -12
189 0 225 2 238 16 14 13 16 60 16 362 l0 346 33 -31 c81 -76 174 -123 291
-148 142 -29 274 -11 415 57 208 100 333 312 356 603 9 110 -8 280 -36 373
-54 176 -176 327 -319 395 -123 59 -269 79 -404 56z m95 -416 c57 -30 100 -87
121 -158 19 -62 14 -290 -6 -345 -52 -140 -169 -207 -315 -181 -128 23 -197
87 -225 210 -41 179 -1 390 85 454 87 64 243 73 340 20z"/>
<path d="M7556 2030 c-270 -31 -452 -133 -528 -296 -24 -51 -31 -82 -32 -128
l-1 -61 244 0 244 0 14 47 c24 83 94 121 228 121 106 0 172 -39 201 -120 17
-48 18 -125 2 -141 -8 -8 -67 -12 -197 -12 -386 -1 -568 -46 -696 -174 -64
-63 -95 -139 -102 -248 -11 -145 27 -259 112 -343 93 -92 225 -139 395 -139
163 0 308 48 438 146 l62 47 0 -70 c0 -60 3 -71 19 -77 11 -4 122 -5 248 -2
l228 5 -1 485 c0 418 -3 494 -17 553 -67 273 -265 398 -652 411 -71 3 -166 1
-209 -4z m382 -902 c6 -97 -38 -177 -122 -220 -62 -33 -216 -38 -279 -10 -81
36 -111 127 -67 200 37 60 123 81 330 78 l135 -1 3 -47z"/>
<path d="M6455 2006 c-27 -13 -70 -44 -95 -70 -24 -25 -48 -46 -53 -46 -5 0
-6 15 -3 33 4 21 1 40 -8 52 -12 17 -31 18 -232 20 -120 0 -227 -3 -236 -7
-17 -8 -18 -52 -18 -703 0 -381 4 -696 8 -699 5 -3 111 -6 237 -7 211 -2 229
0 242 17 10 14 13 112 13 492 0 307 4 480 10 493 16 28 31 24 75 -21 51 -53
112 -75 200 -74 120 1 204 55 253 163 21 45 24 64 20 125 -5 80 -24 124 -76
179 -74 77 -234 102 -337 53z"/>
<path d="M18 1981 c-19 -13 -19 -27 -15 -520 3 -428 6 -516 20 -569 24 -90 62
-158 121 -218 96 -95 216 -137 396 -136 165 0 273 43 388 155 l52 51 0 -76 c0
-42 4 -80 10 -83 5 -3 114 -6 241 -6 179 0 234 3 241 13 11 19 10 1369 -2
1388 -8 13 -46 15 -231 17 -126 1 -230 -2 -240 -8 -17 -9 -18 -40 -21 -457 -3
-440 -3 -448 -25 -489 -47 -87 -138 -131 -254 -120 -83 7 -137 40 -168 102
l-26 49 -5 452 c-3 249 -8 456 -12 460 -4 4 -107 8 -229 8 -172 1 -226 -2
-241 -13z"/>
</g>
</svg>
