<?xml version="1.0" standalone="no"?>
<!DOCTYPE svg PUBLIC "-//W3C//DTD SVG 20010904//EN"
 "http://www.w3.org/TR/2001/REC-SVG-20010904/DTD/svg10.dtd">
<svg version="1.0" xmlns="http://www.w3.org/2000/svg"
 width="1200.000000pt" height="424.000000pt" viewBox="0 0 1200.000000 424.000000"
 preserveAspectRatio="xMidYMid meet">

<g transform="translate(0.000000,424.000000) scale(0.100000,-0.100000)"
fill="#000000" stroke="none">
<path d="M10 2125 l0 -2115 5990 0 5990 0 0 2115 0 2115 -5990 0 -5990 0 0
-2115z m5615 1375 c332 -48 589 -218 719 -477 44 -87 76 -202 76 -270 l0 -53
-289 0 -289 0 -6 33 c-12 63 -62 152 -110 194 -73 64 -125 78 -291 78 -138 0
-141 -1 -207 -33 -75 -36 -154 -115 -193 -193 -56 -109 -70 -188 -70 -394 0
-172 2 -197 23 -265 48 -151 116 -243 223 -299 82 -45 148 -61 246 -61 140 0
257 50 347 151 39 44 76 119 76 156 0 10 -34 13 -160 13 l-160 0 0 200 0 200
450 0 450 0 0 -570 0 -570 -230 0 -230 0 0 90 c0 50 -3 90 -6 90 -3 0 -26 -17
-50 -39 -62 -55 -193 -117 -309 -148 -89 -23 -119 -26 -270 -27 -187 0 -267
13 -422 74 -160 62 -325 193 -419 333 -254 378 -240 1019 30 1385 161 219 403
359 691 401 84 12 297 13 380 1z m5585 -1095 l0 -1065 -250 0 -250 0 0 81 0
81 -67 -62 c-110 -103 -217 -141 -394 -141 -190 0 -321 48 -443 162 -79 74
-126 146 -163 246 -48 132 -57 196 -56 393 0 167 3 195 26 284 40 148 88 237
177 327 126 128 258 179 460 179 178 0 282 -37 390 -137 l60 -55 0 386 0 386
255 0 255 0 0 -1065z m-7535 470 c213 -54 383 -223 449 -445 63 -209 59 -493
-10 -699 -74 -223 -247 -379 -468 -422 -77 -15 -234 -12 -309 5 -92 22 -161
58 -229 124 l-58 55 0 -381 0 -382 -255 0 -255 0 0 1060 0 1060 250 0 250 0 0
-83 0 -83 63 61 c66 65 146 110 230 131 75 18 270 17 342 -1z m3961 -18 c99
-50 147 -135 147 -259 0 -68 -5 -87 -33 -144 -37 -75 -85 -116 -163 -139 -112
-33 -213 -10 -290 67 -85 85 -82 105 -85 -512 l-3 -530 -254 0 -255 0 0 755 0
755 253 -2 252 -3 5 -54 5 -55 28 37 c30 40 94 87 142 105 17 7 68 10 115 9
68 -3 95 -9 136 -30z m1274 13 c240 -49 381 -175 442 -397 21 -75 22 -102 26
-605 l3 -528 -255 0 -256 0 0 82 0 81 -58 -55 c-114 -109 -236 -150 -442 -150
-289 1 -474 125 -521 350 -16 77 -7 243 17 305 43 112 150 204 290 251 126 41
253 56 497 56 l217 0 0 45 c0 177 -70 242 -252 233 -136 -6 -187 -41 -203
-140 l-7 -38 -259 0 c-296 0 -269 -12 -244 103 47 222 212 362 486 412 119 21
404 19 519 -5z m-7608 -507 c3 -544 3 -540 74 -602 85 -75 251 -67 336 16 72
70 72 71 76 601 l3 472 255 0 254 0 0 -755 0 -755 -255 0 -255 0 -1 73 c-1 39
-1 79 0 87 1 8 -21 -9 -50 -38 -121 -125 -280 -183 -458 -168 -250 21 -399
140 -468 375 -15 49 -18 130 -21 619 l-3 562 255 0 255 0 3 -487z"/>
<path d="M10327 2466 c-122 -34 -181 -116 -197 -276 -12 -121 1 -260 30 -328
45 -105 147 -159 282 -150 125 9 210 77 244 196 23 78 23 295 1 372 -23 77
-67 134 -130 165 -65 31 -162 41 -230 21z"/>
<path d="M3233 2462 c-74 -27 -118 -64 -150 -129 -24 -51 -28 -73 -33 -178 -6
-147 4 -234 35 -294 50 -98 125 -141 248 -141 91 0 139 15 191 61 81 72 116
215 96 403 -11 105 -25 147 -65 201 -60 78 -215 115 -322 77z"/>
<path d="M8554 1970 c-79 -12 -121 -29 -148 -61 -36 -43 -43 -92 -20 -148 34
-82 138 -116 276 -91 127 22 193 100 205 239 l6 71 -134 -1 c-74 -1 -157 -5
-185 -9z"/>
</g>
</svg>
